  0
SECTION
  2
ENTITIES
999
DXF created from EnergyPlus
999
Program Version,EnergyPlus 3.1.0.027, 8/13/2009 10:06 AM
999
Polygon Action,ThickPolyline
999
Color Scheme,Default
999
Text - True North
  0
TEXT
  8
1
  6
Continuous
 62
  3
 10
      -11.00000
 20
        3.00000
 30
        0.10000
 40
 .25
  1
True North
 41
 0.0
  7
MONOTXT
210
0.0
220
0.0
230
1.0
999
Text - Building Title
  0
TEXT
  8
1
  6
Continuous
 62
  3
 10
      -14.00000
 20
       -1.00000
 30
        0.10000
 40
 .4
  1
Building - Winter Morning - Baltimore (created 15July09 jjd)
 41
 0.0
  7
MONOTXT
210
0.0
220
0.0
230
1.0
999
North Arrow Stem
  0
3DFACE
  8
1
 62
  3
 10
      -10.00000
 20
        3.00000
 30
        0.10000
 11
      -10.00000
 21
        3.00000
 31
        0.00000
 12
      -10.00000
 22
        0.00000
 32
        0.00000
 13
      -10.00000
 23
        0.00000
 33
        0.10000
999
North Arrow Head 1
  0
3DFACE
  8
1
 62
  3
 10
      -10.00000
 20
        3.00000
 30
        0.10000
 11
      -10.00000
 21
        3.00000
 31
        0.00000
 12
      -10.50000
 22
        2.13398
 32
        0.00000
 13
      -10.50000
 23
        2.13398
 33
        0.10000
999
North Arrow Head 2
  0
3DFACE
  8
1
 62
  3
 10
      -10.00000
 20
        3.00000
 30
        0.10000
 11
      -10.00000
 21
        3.00000
 31
        0.00000
 12
       -9.50000
 22
        2.13398
 32
        0.00000
 13
       -9.50000
 23
        2.13398
 33
        0.10000
999
North Arrow Side 1
  0
3DFACE
  8
1
 62
  3
 10
      -10.50000
 20
        4.50000
 30
        0.10000
 11
      -10.50000
 21
        4.50000
 31
        0.00000
 12
      -10.50000
 22
        3.50000
 32
        0.00000
 13
      -10.50000
 23
        3.50000
 33
        0.10000
999
North Arrow Side 2
  0
3DFACE
  8
1
 62
  3
 10
      -10.50000
 20
        4.50000
 30
        0.10000
 11
      -10.50000
 21
        4.50000
 31
        0.00000
 12
       -9.50000
 22
        3.50000
 32
        0.00000
 13
       -9.50000
 23
        3.50000
 33
        0.10000
999
North Arrow Side 3
  0
3DFACE
  8
1
 62
  3
 10
       -9.50000
 20
        4.50000
 30
        0.10000
 11
       -9.50000
 21
        4.50000
 31
        0.00000
 12
       -9.50000
 22
        3.50000
 32
        0.00000
 13
       -9.50000
 23
        3.50000
 33
        0.10000
999
Zone Names
999
Zone=1:PERIM-1-NORTH
999
Zone=2:PERIM-1-EAST
999
Zone=3:PERIM-1-SOUTH
999
Zone=4:PERIM-1-WEST
999
Zone=5:CORE-1
999
Zone=6:PERIM-2-NORTH
999
Zone=7:PERIM-2-EAST
999
Zone=8:PERIM-2-SOUTH
999
Zone=9:PERIM-2-WEST
999
Zone=10:CORE-2
999
Zone=11:PERIM-3-NORTH
999
Zone=12:PERIM-3-EAST
999
Zone=13:PERIM-3-SOUTH
999
Zone=14:PERIM-3-WEST
999
Zone=15:CORE-3
999
PERIM-1-NORTH:EXT-PER1N-NOR
  0
3DFACE
  8
PERIM-1-NORTH
 62
 43
 10
       24.38400
 20
       38.10000
 30
        3.00000
 11
       24.38400
 21
       38.10000
 31
        0.00000
 12
        0.00000
 22
       38.10000
 32
        0.00000
 13
        0.00000
 23
       38.10000
 33
        3.00000
999
PERIM-1-NORTH:WIN-1-NOR
  0
3DFACE
  8
PERIM-1-NORTH
 62
143
 10
       24.38400
 20
       38.10000
 30
        2.10000
 11
       24.38400
 21
       38.10000
 31
        0.90000
 12
        0.00000
 22
       38.10000
 32
        0.90000
 13
        0.00000
 23
       38.10000
 33
        2.10000
999
PERIM-1-NORTH:INT-PER1N-SW
  0
3DFACE
  8
PERIM-1-NORTH
 62
 43
 10
        0.00000
 20
       38.10000
 30
        3.00000
 11
        0.00000
 21
       38.10000
 31
        0.00000
 12
        4.60000
 22
       33.50000
 32
        0.00000
 13
        4.60000
 23
       33.50000
 33
        3.00000
999
PERIM-1-NORTH:INT-PER1N-SOU
  0
3DFACE
  8
PERIM-1-NORTH
 62
 43
 10
        4.60000
 20
       33.50000
 30
        3.00000
 11
        4.60000
 21
       33.50000
 31
        0.00000
 12
       19.78399
 22
       33.50000
 32
        0.00000
 13
       19.78399
 23
       33.50000
 33
        3.00000
999
PERIM-1-NORTH:INT-PER1N-SE
  0
3DFACE
  8
PERIM-1-NORTH
 62
 43
 10
       19.78399
 20
       33.50000
 30
        3.00000
 11
       19.78399
 21
       33.50000
 31
        0.00000
 12
       24.38400
 22
       38.10000
 32
        0.00000
 13
       24.38400
 23
       38.10000
 33
        3.00000
999
PERIM-1-NORTH:iz-INT-PER1E-NW
  0
3DFACE
  8
PERIM-1-NORTH
 62
 43
 10
       19.78399
 20
       33.50000
 30
        3.00000
 11
       19.78399
 21
       33.50000
 31
        0.00000
 12
       24.38400
 22
       38.10000
 32
        0.00000
 13
       24.38400
 23
       38.10000
 33
        3.00000
999
PERIM-1-NORTH:iz-INT-PER1W-NE
  0
3DFACE
  8
PERIM-1-NORTH
 62
 43
 10
        0.00000
 20
       38.10000
 30
        3.00000
 11
        0.00000
 21
       38.10000
 31
        0.00000
 12
        4.60000
 22
       33.50000
 32
        0.00000
 13
        4.60000
 23
       33.50000
 33
        3.00000
999
PERIM-1-NORTH:iz-INT-CORE1-NOR
  0
3DFACE
  8
PERIM-1-NORTH
 62
 43
 10
        4.60000
 20
       33.50000
 30
        3.00000
 11
        4.60000
 21
       33.50000
 31
        0.00000
 12
       19.78399
 22
       33.50000
 32
        0.00000
 13
       19.78399
 23
       33.50000
 33
        3.00000
999
PERIM-1-NORTH:FLOOR-PER1N
  0
3DFACE
  8
PERIM-1-NORTH
 62
  8
 10
        4.60000
 20
       33.50000
 30
        0.00000
 11
        0.00000
 21
       38.10000
 31
        0.00000
 12
       24.38400
 22
       38.10000
 32
        0.00000
 13
       19.78399
 23
       33.50000
 33
        0.00000
999
PERIM-1-NORTH:CEILING-PER1N
  0
3DFACE
  8
PERIM-1-NORTH
 62
 15
 10
       19.78399
 20
       33.50000
 30
        3.00000
 11
       24.38400
 21
       38.10000
 31
        3.00000
 12
        0.00000
 22
       38.10000
 32
        3.00000
 13
        4.60000
 23
       33.50000
 33
        3.00000
999
PERIM-1-EAST:EXT-PER1E-EAS
  0
3DFACE
  8
PERIM-1-EAST
 62
 43
 10
       24.38400
 20
        0.00000
 30
        3.00000
 11
       24.38400
 21
        0.00000
 31
        0.00000
 12
       24.38400
 22
       38.10000
 32
        0.00000
 13
       24.38400
 23
       38.10000
 33
        3.00000
999
PERIM-1-EAST:WIN-1-EAS
  0
3DFACE
  8
PERIM-1-EAST
 62
143
 10
       24.38400
 20
        0.00000
 30
        2.10000
 11
       24.38400
 21
        0.00000
 31
        0.90000
 12
       24.38400
 22
       38.10000
 32
        0.90000
 13
       24.38400
 23
       38.10000
 33
        2.10000
999
PERIM-1-EAST:INT-PER1E-NW
  0
3DFACE
  8
PERIM-1-EAST
 62
 43
 10
       24.38400
 20
       38.10000
 30
        3.00000
 11
       24.38400
 21
       38.10000
 31
        0.00000
 12
       19.78399
 22
       33.50000
 32
        0.00000
 13
       19.78399
 23
       33.50000
 33
        3.00000
999
PERIM-1-EAST:INT-PER1E-WES
  0
3DFACE
  8
PERIM-1-EAST
 62
 43
 10
       19.78399
 20
       33.50000
 30
        3.00000
 11
       19.78399
 21
       33.50000
 31
        0.00000
 12
       19.78399
 22
        4.60000
 32
        0.00000
 13
       19.78399
 23
        4.60000
 33
        3.00000
999
PERIM-1-EAST:INT-PER1E-SW
  0
3DFACE
  8
PERIM-1-EAST
 62
 43
 10
       19.78399
 20
        4.60000
 30
        3.00000
 11
       19.78399
 21
        4.60000
 31
        0.00000
 12
       24.38400
 22
        0.00000
 32
        0.00000
 13
       24.38400
 23
        0.00000
 33
        3.00000
999
PERIM-1-EAST:iz-INT-PER1N-SE
  0
3DFACE
  8
PERIM-1-EAST
 62
 43
 10
       24.38400
 20
       38.10000
 30
        3.00000
 11
       24.38400
 21
       38.10000
 31
        0.00000
 12
       19.78399
 22
       33.50000
 32
        0.00000
 13
       19.78399
 23
       33.50000
 33
        3.00000
999
PERIM-1-EAST:iz-INT-PER1S-NE
  0
3DFACE
  8
PERIM-1-EAST
 62
 43
 10
       19.78399
 20
        4.60000
 30
        3.00000
 11
       19.78399
 21
        4.60000
 31
        0.00000
 12
       24.38400
 22
        0.00000
 32
        0.00000
 13
       24.38400
 23
        0.00000
 33
        3.00000
999
PERIM-1-EAST:iz-INT-CORE1-EAS
  0
3DFACE
  8
PERIM-1-EAST
 62
 43
 10
       19.78399
 20
       33.50000
 30
        3.00000
 11
       19.78399
 21
       33.50000
 31
        0.00000
 12
       19.78399
 22
        4.60000
 32
        0.00000
 13
       19.78399
 23
        4.60000
 33
        3.00000
999
PERIM-1-EAST:FLOOR-PER1E
  0
3DFACE
  8
PERIM-1-EAST
 62
  8
 10
       19.78399
 20
       33.50000
 30
        0.00000
 11
       24.38400
 21
       38.10000
 31
        0.00000
 12
       24.38400
 22
        0.00000
 32
        0.00000
 13
       19.78399
 23
        4.60000
 33
        0.00000
999
PERIM-1-EAST:CEILING-PER1E
  0
3DFACE
  8
PERIM-1-EAST
 62
 15
 10
       19.78399
 20
        4.60000
 30
        3.00000
 11
       24.38400
 21
        0.00000
 31
        3.00000
 12
       24.38400
 22
       38.10000
 32
        3.00000
 13
       19.78399
 23
       33.50000
 33
        3.00000
999
PERIM-1-SOUTH:EXT-PER1S-SOU
  0
3DFACE
  8
PERIM-1-SOUTH
 62
 43
 10
        0.00000
 20
        0.00000
 30
        3.00000
 11
        0.00000
 21
        0.00000
 31
        0.00000
 12
       24.38400
 22
        0.00000
 32
        0.00000
 13
       24.38400
 23
        0.00000
 33
        3.00000
999
PERIM-1-SOUTH:WIN-1-SOU
  0
3DFACE
  8
PERIM-1-SOUTH
 62
143
 10
        0.00000
 20
        0.00000
 30
        2.10000
 11
        0.00000
 21
        0.00000
 31
        0.90000
 12
       24.38400
 22
        0.00000
 32
        0.90000
 13
       24.38400
 23
        0.00000
 33
        2.10000
999
PERIM-1-SOUTH:INT-PER1S-NE
  0
3DFACE
  8
PERIM-1-SOUTH
 62
 43
 10
       24.38400
 20
        0.00000
 30
        3.00000
 11
       24.38400
 21
        0.00000
 31
        0.00000
 12
       19.78399
 22
        4.60000
 32
        0.00000
 13
       19.78399
 23
        4.60000
 33
        3.00000
999
PERIM-1-SOUTH:INT-PER1S-NOR
  0
3DFACE
  8
PERIM-1-SOUTH
 62
 43
 10
       19.78399
 20
        4.60000
 30
        3.00000
 11
       19.78399
 21
        4.60000
 31
        0.00000
 12
        4.60000
 22
        4.60000
 32
        0.00000
 13
        4.60000
 23
        4.60000
 33
        3.00000
999
PERIM-1-SOUTH:INT-PER1S-NW
  0
3DFACE
  8
PERIM-1-SOUTH
 62
 43
 10
        4.60000
 20
        4.60000
 30
        3.00000
 11
        4.60000
 21
        4.60000
 31
        0.00000
 12
        0.00000
 22
        0.00000
 32
        0.00000
 13
        0.00000
 23
        0.00000
 33
        3.00000
999
PERIM-1-SOUTH:iz-INT-PER1E-SW
  0
3DFACE
  8
PERIM-1-SOUTH
 62
 43
 10
       24.38400
 20
        0.00000
 30
        3.00000
 11
       24.38400
 21
        0.00000
 31
        0.00000
 12
       19.78399
 22
        4.60000
 32
        0.00000
 13
       19.78399
 23
        4.60000
 33
        3.00000
999
PERIM-1-SOUTH:iz-INT-PER1W-SE
  0
3DFACE
  8
PERIM-1-SOUTH
 62
 43
 10
        4.60000
 20
        4.60000
 30
        3.00000
 11
        4.60000
 21
        4.60000
 31
        0.00000
 12
        0.00000
 22
        0.00000
 32
        0.00000
 13
        0.00000
 23
        0.00000
 33
        3.00000
999
PERIM-1-SOUTH:iz-INT-CORE1-SOU
  0
3DFACE
  8
PERIM-1-SOUTH
 62
 43
 10
       19.78399
 20
        4.60000
 30
        3.00000
 11
       19.78399
 21
        4.60000
 31
        0.00000
 12
        4.60000
 22
        4.60000
 32
        0.00000
 13
        4.60000
 23
        4.60000
 33
        3.00000
999
PERIM-1-SOUTH:FLOOR-PER1S
  0
3DFACE
  8
PERIM-1-SOUTH
 62
  8
 10
       19.78399
 20
        4.60000
 30
        0.00000
 11
       24.38400
 21
        0.00000
 31
        0.00000
 12
        0.00000
 22
        0.00000
 32
        0.00000
 13
        4.60000
 23
        4.60000
 33
        0.00000
999
PERIM-1-SOUTH:CEILING-PER1S
  0
3DFACE
  8
PERIM-1-SOUTH
 62
 15
 10
        4.60000
 20
        4.60000
 30
        3.00000
 11
        0.00000
 21
        0.00000
 31
        3.00000
 12
       24.38400
 22
        0.00000
 32
        3.00000
 13
       19.78399
 23
        4.60000
 33
        3.00000
999
PERIM-1-WEST:EXT-PER1W-WES
  0
3DFACE
  8
PERIM-1-WEST
 62
 43
 10
        0.00000
 20
       38.10000
 30
        3.00000
 11
        0.00000
 21
       38.10000
 31
        0.00000
 12
        0.00000
 22
        0.00000
 32
        0.00000
 13
        0.00000
 23
        0.00000
 33
        3.00000
999
PERIM-1-WEST:WIN-1-WES
  0
3DFACE
  8
PERIM-1-WEST
 62
143
 10
        0.00000
 20
       38.10000
 30
        2.10000
 11
        0.00000
 21
       38.10000
 31
        0.90000
 12
        0.00000
 22
        0.00000
 32
        0.90000
 13
        0.00000
 23
        0.00000
 33
        2.10000
999
PERIM-1-WEST:INT-PER1W-SE
  0
3DFACE
  8
PERIM-1-WEST
 62
 43
 10
        0.00000
 20
        0.00000
 30
        3.00000
 11
        0.00000
 21
        0.00000
 31
        0.00000
 12
        4.60000
 22
        4.60000
 32
        0.00000
 13
        4.60000
 23
        4.60000
 33
        3.00000
999
PERIM-1-WEST:INT-PER1W-EAS
  0
3DFACE
  8
PERIM-1-WEST
 62
 43
 10
        4.60000
 20
        4.60000
 30
        3.00000
 11
        4.60000
 21
        4.60000
 31
        0.00000
 12
        4.60000
 22
       33.50000
 32
        0.00000
 13
        4.60000
 23
       33.50000
 33
        3.00000
999
PERIM-1-WEST:INT-PER1W-NE
  0
3DFACE
  8
PERIM-1-WEST
 62
 43
 10
        4.60000
 20
       33.50000
 30
        3.00000
 11
        4.60000
 21
       33.50000
 31
        0.00000
 12
        0.00000
 22
       38.10000
 32
        0.00000
 13
        0.00000
 23
       38.10000
 33
        3.00000
999
PERIM-1-WEST:iz-INT-PER1N-SW
  0
3DFACE
  8
PERIM-1-WEST
 62
 43
 10
        4.60000
 20
       33.50000
 30
        3.00000
 11
        4.60000
 21
       33.50000
 31
        0.00000
 12
        0.00000
 22
       38.10000
 32
        0.00000
 13
        0.00000
 23
       38.10000
 33
        3.00000
999
PERIM-1-WEST:iz-INT-PER1S-NW
  0
3DFACE
  8
PERIM-1-WEST
 62
 43
 10
        0.00000
 20
        0.00000
 30
        3.00000
 11
        0.00000
 21
        0.00000
 31
        0.00000
 12
        4.60000
 22
        4.60000
 32
        0.00000
 13
        4.60000
 23
        4.60000
 33
        3.00000
999
PERIM-1-WEST:iz-INT-CORE1-WES
  0
3DFACE
  8
PERIM-1-WEST
 62
 43
 10
        4.60000
 20
        4.60000
 30
     3000.00000
 11
        4.60000
 21
        4.60000
 31
        0.00000
 12
        4.60000
 22
       33.50000
 32
        0.00000
 13
        4.60000
 23
       33.50000
 33
        3.00000
999
PERIM-1-WEST:FLOOR-PER1W
  0
3DFACE
  8
PERIM-1-WEST
 62
  8
 10
        4.60000
 20
        4.60000
 30
        0.00000
 11
        0.00000
 21
        0.00000
 31
        0.00000
 12
        0.00000
 22
       38.10000
 32
        0.00000
 13
        4.60000
 23
       33.50000
 33
        0.00000
999
PERIM-1-WEST:CEILING-PER1W
  0
3DFACE
  8
PERIM-1-WEST
 62
 15
 10
        4.60000
 20
       33.50000
 30
        3.00000
 11
        0.00000
 21
       38.10000
 31
        3.00000
 12
        0.00000
 22
        0.00000
 32
        3.00000
 13
        4.60000
 23
        4.60000
 33
        3.00000
999
CORE-1:INT-CORE1-SOU
  0
3DFACE
  8
CORE-1
 62
 43
 10
        4.60000
 20
        4.60000
 30
        3.00000
 11
        4.60000
 21
        4.60000
 31
        0.00000
 12
       19.78399
 22
        4.60000
 32
        0.00000
 13
       19.78399
 23
        4.60000
 33
        3.00000
999
CORE-1:INT-CORE1-WES
  0
3DFACE
  8
CORE-1
 62
 43
 10
        4.60000
 20
       33.50000
 30
        3.00000
 11
        4.60000
 21
       33.50000
 31
        0.00000
 12
        4.60000
 22
        4.60000
 32
        0.00000
 13
        4.60000
 23
        4.60000
 33
     3000.00000
999
CORE-1:INT-CORE1-NOR
  0
3DFACE
  8
CORE-1
 62
 43
 10
       19.78399
 20
       33.50000
 30
        3.00000
 11
       19.78399
 21
       33.50000
 31
        0.00000
 12
        4.60000
 22
       33.50000
 32
        0.00000
 13
        4.60000
 23
       33.50000
 33
        3.00000
999
CORE-1:INT-CORE1-EAS
  0
3DFACE
  8
CORE-1
 62
 43
 10
       19.78399
 20
        4.60000
 30
        3.00000
 11
       19.78399
 21
        4.60000
 31
        0.00000
 12
       19.78399
 22
       33.50000
 32
        0.00000
 13
       19.78399
 23
       33.50000
 33
        3.00000
999
CORE-1:iz-INT-PER1N-SOU
  0
3DFACE
  8
CORE-1
 62
 43
 10
       19.78399
 20
       33.50000
 30
        3.00000
 11
       19.78399
 21
       33.50000
 31
        0.00000
 12
        4.60000
 22
       33.50000
 32
        0.00000
 13
        4.60000
 23
       33.50000
 33
        3.00000
999
CORE-1:iz-INT-PER1E-WES
  0
3DFACE
  8
CORE-1
 62
 43
 10
       19.78399
 20
        4.60000
 30
        3.00000
 11
       19.78399
 21
        4.60000
 31
        0.00000
 12
       19.78399
 22
       33.50000
 32
        0.00000
 13
       19.78399
 23
       33.50000
 33
        3.00000
999
CORE-1:iz-INT-PER1S-NOR
  0
3DFACE
  8
CORE-1
 62
 43
 10
        4.60000
 20
        4.60000
 30
        3.00000
 11
        4.60000
 21
        4.60000
 31
        0.00000
 12
       19.78399
 22
        4.60000
 32
        0.00000
 13
       19.78399
 23
        4.60000
 33
        3.00000
999
CORE-1:iz-INT-PER1W-EAS
  0
3DFACE
  8
CORE-1
 62
 43
 10
        4.60000
 20
       33.50000
 30
        3.00000
 11
        4.60000
 21
       33.50000
 31
        0.00000
 12
        4.60000
 22
        4.60000
 32
        0.00000
 13
        4.60000
 23
        4.60000
 33
        3.00000
999
CORE-1:FLOOR-CORE1
  0
3DFACE
  8
CORE-1
 62
  8
 10
       19.78399
 20
       33.50000
 30
        0.00000
 11
       19.78399
 21
        4.60000
 31
        0.00000
 12
        4.60000
 22
        4.60000
 32
        0.00000
 13
        4.60000
 23
       33.50000
 33
        0.00000
999
CORE-1:CEILING-CORE1
  0
3DFACE
  8
CORE-1
 62
 15
 10
        4.60000
 20
       33.50000
 30
        3.00000
 11
        4.60000
 21
        4.60000
 31
        3.00000
 12
       19.78399
 22
        4.60000
 32
        3.00000
 13
       19.78399
 23
       33.50000
 33
        3.00000
999
PERIM-2-NORTH:EXT-PER2N-NOR
  0
3DFACE
  8
PERIM-2-NORTH
 62
 43
 10
       24.38400
 20
       38.10000
 30
        6.00000
 11
       24.38400
 21
       38.10000
 31
        3.00000
 12
        0.00000
 22
       38.10000
 32
        3.00000
 13
        0.00000
 23
       38.10000
 33
        6.00000
999
PERIM-2-NORTH:WIN-2-NOR
  0
3DFACE
  8
PERIM-2-NORTH
 62
143
 10
       24.38400
 20
       38.10000
 30
        5.10000
 11
       24.38400
 21
       38.10000
 31
        3.90000
 12
        0.00000
 22
       38.10000
 32
        3.90000
 13
        0.00000
 23
       38.10000
 33
        5.10000
999
PERIM-2-NORTH:INT-PER2N-SW
  0
3DFACE
  8
PERIM-2-NORTH
 62
 43
 10
        0.00000
 20
       38.10000
 30
        6.00000
 11
        0.00000
 21
       38.10000
 31
        3.00000
 12
        4.60000
 22
       33.50000
 32
        3.00000
 13
        4.60000
 23
       33.50000
 33
        6.00000
999
PERIM-2-NORTH:INT-PER2N-SOU
  0
3DFACE
  8
PERIM-2-NORTH
 62
 43
 10
        4.60000
 20
       33.50000
 30
        6.00000
 11
        4.60000
 21
       33.50000
 31
        3.00000
 12
       19.78399
 22
       33.50000
 32
        3.00000
 13
       19.78399
 23
       33.50000
 33
        6.00000
999
PERIM-2-NORTH:INT-PER2N-SE
  0
3DFACE
  8
PERIM-2-NORTH
 62
 43
 10
       19.78399
 20
       33.50000
 30
        6.00000
 11
       19.78399
 21
       33.50000
 31
        3.00000
 12
       24.38400
 22
       38.10000
 32
        3.00000
 13
       24.38400
 23
       38.10000
 33
        6.00000
999
PERIM-2-NORTH:iz-INT-PER2E-NW
  0
3DFACE
  8
PERIM-2-NORTH
 62
 43
 10
       19.78399
 20
       33.50000
 30
        6.00000
 11
       19.78399
 21
       33.50000
 31
        3.00000
 12
       24.38400
 22
       38.10000
 32
        3.00000
 13
       24.38400
 23
       38.10000
 33
        6.00000
999
PERIM-2-NORTH:iz-INT-PER2W-NE
  0
3DFACE
  8
PERIM-2-NORTH
 62
 43
 10
        0.00000
 20
       38.10000
 30
        6.00000
 11
        0.00000
 21
       38.10000
 31
        3.00000
 12
        4.60000
 22
       33.50000
 32
        3.00000
 13
        4.60000
 23
       33.50000
 33
        6.00000
999
PERIM-2-NORTH:iz-INT-CORE2-NOR
  0
3DFACE
  8
PERIM-2-NORTH
 62
 43
 10
        4.60000
 20
       33.50000
 30
        6.00000
 11
        4.60000
 21
       33.50000
 31
        3.00000
 12
       19.78399
 22
       33.50000
 32
        3.00000
 13
       19.78399
 23
       33.50000
 33
        6.00000
999
PERIM-2-NORTH:FLOOR-PER2N
  0
3DFACE
  8
PERIM-2-NORTH
 62
  8
 10
        4.60000
 20
       33.50000
 30
        3.00000
 11
        0.00000
 21
       38.10000
 31
        3.00000
 12
       24.38400
 22
       38.10000
 32
        3.00000
 13
       19.78399
 23
       33.50000
 33
        3.00000
999
PERIM-2-NORTH:CEILING-PER2N
  0
3DFACE
  8
PERIM-2-NORTH
 62
 15
 10
       19.78399
 20
       33.50000
 30
        6.00000
 11
       24.38400
 21
       38.10000
 31
        6.00000
 12
        0.00000
 22
       38.10000
 32
        6.00000
 13
        4.60000
 23
       33.50000
 33
        6.00000
999
PERIM-2-EAST:EXT-PER2E-EAS
  0
3DFACE
  8
PERIM-2-EAST
 62
 43
 10
       24.38400
 20
        0.00000
 30
        6.00000
 11
       24.38400
 21
        0.00000
 31
        3.00000
 12
       24.38400
 22
       38.10000
 32
        3.00000
 13
       24.38400
 23
       38.10000
 33
        6.00000
999
PERIM-2-EAST:WIN-2-EAS
  0
3DFACE
  8
PERIM-2-EAST
 62
143
 10
       24.38400
 20
        0.00000
 30
        5.10000
 11
       24.38400
 21
        0.00000
 31
        3.90000
 12
       24.38400
 22
       38.10000
 32
        3.90000
 13
       24.38400
 23
       38.10000
 33
        5.10000
999
PERIM-2-EAST:INT-PER2E-NW
  0
3DFACE
  8
PERIM-2-EAST
 62
 43
 10
       24.38400
 20
       38.10000
 30
        6.00000
 11
       24.38400
 21
       38.10000
 31
        3.00000
 12
       19.78399
 22
       33.50000
 32
        3.00000
 13
       19.78399
 23
       33.50000
 33
        6.00000
999
PERIM-2-EAST:INT-PER2E-WES
  0
3DFACE
  8
PERIM-2-EAST
 62
 43
 10
       19.78399
 20
       33.50000
 30
        6.00000
 11
       19.78399
 21
       33.50000
 31
        3.00000
 12
       19.78399
 22
        4.60000
 32
        3.00000
 13
       19.78399
 23
        4.60000
 33
        6.00000
999
PERIM-2-EAST:INT-PER2E-SW
  0
3DFACE
  8
PERIM-2-EAST
 62
 43
 10
       19.78399
 20
        4.60000
 30
        6.00000
 11
       19.78399
 21
        4.60000
 31
        3.00000
 12
       24.38400
 22
        0.00000
 32
        3.00000
 13
       24.38400
 23
        0.00000
 33
        6.00000
999
PERIM-2-EAST:iz-INT-PER2N-SE
  0
3DFACE
  8
PERIM-2-EAST
 62
 43
 10
       24.38400
 20
       38.10000
 30
        6.00000
 11
       24.38400
 21
       38.10000
 31
        3.00000
 12
       19.78399
 22
       33.50000
 32
        3.00000
 13
       19.78399
 23
       33.50000
 33
        6.00000
999
PERIM-2-EAST:iz-INT-PER2S-NE
  0
3DFACE
  8
PERIM-2-EAST
 62
 43
 10
       19.78399
 20
        4.60000
 30
        6.00000
 11
       19.78399
 21
        4.60000
 31
        3.00000
 12
       24.38400
 22
        0.00000
 32
        3.00000
 13
       24.38400
 23
        0.00000
 33
        6.00000
999
PERIM-2-EAST:iz-INT-CORE2-EAS
  0
3DFACE
  8
PERIM-2-EAST
 62
 43
 10
       19.78399
 20
       33.50000
 30
        6.00000
 11
       19.78399
 21
       33.50000
 31
        3.00000
 12
       19.78399
 22
        4.60000
 32
        3.00000
 13
       19.78399
 23
        4.60000
 33
        6.00000
999
PERIM-2-EAST:FLOOR-PER2E
  0
3DFACE
  8
PERIM-2-EAST
 62
  8
 10
       19.78399
 20
       33.50000
 30
        3.00000
 11
       24.38400
 21
       38.10000
 31
        3.00000
 12
       24.38400
 22
        0.00000
 32
        3.00000
 13
       19.78399
 23
        4.60000
 33
        3.00000
999
PERIM-2-EAST:CEILING-PER2E
  0
3DFACE
  8
PERIM-2-EAST
 62
 15
 10
       19.78399
 20
        4.60000
 30
        6.00000
 11
       24.38400
 21
        0.00000
 31
        6.00000
 12
       24.38400
 22
       38.10000
 32
        6.00000
 13
       19.78399
 23
       33.50000
 33
        6.00000
999
PERIM-2-SOUTH:INT-PER2S-NE
  0
3DFACE
  8
PERIM-2-SOUTH
 62
 43
 10
       24.38400
 20
        0.00000
 30
        6.00000
 11
       24.38400
 21
        0.00000
 31
        3.00000
 12
       19.78399
 22
        4.60000
 32
        3.00000
 13
       19.78399
 23
        4.60000
 33
        6.00000
999
PERIM-2-SOUTH:EXT-PER2S-SOU
  0
3DFACE
  8
PERIM-2-SOUTH
 62
 43
 10
        0.00000
 20
        0.00000
 30
        6.00000
 11
        0.00000
 21
        0.00000
 31
        3.00000
 12
       24.38400
 22
        0.00000
 32
        3.00000
 13
       24.38400
 23
        0.00000
 33
        6.00000
999
PERIM-2-SOUTH:WIN-2-SOU
  0
3DFACE
  8
PERIM-2-SOUTH
 62
143
 10
        0.00000
 20
        0.00000
 30
        5.10000
 11
        0.00000
 21
        0.00000
 31
        3.90000
 12
       24.38400
 22
        0.00000
 32
        3.90000
 13
       24.38400
 23
        0.00000
 33
        5.10000
999
PERIM-2-SOUTH:INT-PER2S-NW
  0
3DFACE
  8
PERIM-2-SOUTH
 62
 43
 10
        4.60000
 20
        4.60000
 30
        6.00000
 11
        4.60000
 21
        4.60000
 31
        3.00000
 12
        0.00000
 22
        0.00000
 32
        3.00000
 13
        0.00000
 23
        0.00000
 33
        6.00000
999
PERIM-2-SOUTH:INT-PER2S-NOR
  0
3DFACE
  8
PERIM-2-SOUTH
 62
 43
 10
       19.78399
 20
        4.60000
 30
        6.00000
 11
       19.78399
 21
        4.60000
 31
        3.00000
 12
        4.60000
 22
        4.60000
 32
        3.00000
 13
        4.60000
 23
        4.60000
 33
        6.00000
999
PERIM-2-SOUTH:iz-INT-PER2E-SW
  0
3DFACE
  8
PERIM-2-SOUTH
 62
 43
 10
       24.38400
 20
        0.00000
 30
        6.00000
 11
       24.38400
 21
        0.00000
 31
        3.00000
 12
       19.78399
 22
        4.60000
 32
        3.00000
 13
       19.78399
 23
        4.60000
 33
        6.00000
999
PERIM-2-SOUTH:iz-INT-PER2W-SE
  0
3DFACE
  8
PERIM-2-SOUTH
 62
 43
 10
        4.60000
 20
        4.60000
 30
        6.00000
 11
        4.60000
 21
        4.60000
 31
        3.00000
 12
        0.00000
 22
        0.00000
 32
        3.00000
 13
        0.00000
 23
        0.00000
 33
        6.00000
999
PERIM-2-SOUTH:iz-INT-CORE2-SOU
  0
3DFACE
  8
PERIM-2-SOUTH
 62
 43
 10
       19.78399
 20
        4.60000
 30
        6.00000
 11
       19.78399
 21
        4.60000
 31
        3.00000
 12
        4.60000
 22
        4.60000
 32
        3.00000
 13
        4.60000
 23
        4.60000
 33
        6.00000
999
PERIM-2-SOUTH:FLOOR-PER2S
  0
3DFACE
  8
PERIM-2-SOUTH
 62
  8
 10
       19.78399
 20
        4.60000
 30
        3.00000
 11
       24.38400
 21
        0.00000
 31
        3.00000
 12
        0.00000
 22
        0.00000
 32
        3.00000
 13
        4.60000
 23
        4.60000
 33
        3.00000
999
PERIM-2-SOUTH:CEILING-PER2S
  0
3DFACE
  8
PERIM-2-SOUTH
 62
 15
 10
        4.60000
 20
        4.60000
 30
        6.00000
 11
        0.00000
 21
        0.00000
 31
        6.00000
 12
       24.38400
 22
        0.00000
 32
        6.00000
 13
       19.78399
 23
        4.60000
 33
        6.00000
999
PERIM-2-WEST:EXT-PER2W-WES
  0
3DFACE
  8
PERIM-2-WEST
 62
 43
 10
        0.00000
 20
       38.10000
 30
        6.00000
 11
        0.00000
 21
       38.10000
 31
        3.00000
 12
        0.00000
 22
        0.00000
 32
        3.00000
 13
        0.00000
 23
        0.00000
 33
        6.00000
999
PERIM-2-WEST:WIN-2-WES
  0
3DFACE
  8
PERIM-2-WEST
 62
143
 10
        0.00000
 20
       38.10000
 30
        5.10000
 11
        0.00000
 21
       38.10000
 31
        3.90000
 12
        0.00000
 22
        0.00000
 32
        3.90000
 13
        0.00000
 23
        0.00000
 33
        5.10000
999
PERIM-2-WEST:INT-PER2W-SE
  0
3DFACE
  8
PERIM-2-WEST
 62
 43
 10
        0.00000
 20
        0.00000
 30
        6.00000
 11
        0.00000
 21
        0.00000
 31
        3.00000
 12
        4.60000
 22
        4.60000
 32
        3.00000
 13
        4.60000
 23
        4.60000
 33
        6.00000
999
PERIM-2-WEST:INT-PER2W-EAS
  0
3DFACE
  8
PERIM-2-WEST
 62
 43
 10
        4.60000
 20
        4.60000
 30
        6.00000
 11
        4.60000
 21
        4.60000
 31
        3.00000
 12
        4.60000
 22
       33.50000
 32
        3.00000
 13
        4.60000
 23
       33.50000
 33
        6.00000
999
PERIM-2-WEST:INT-PER2W-NE
  0
3DFACE
  8
PERIM-2-WEST
 62
 43
 10
        4.60000
 20
       33.50000
 30
        6.00000
 11
        4.60000
 21
       33.50000
 31
        3.00000
 12
        0.00000
 22
       38.10000
 32
        3.00000
 13
        0.00000
 23
       38.10000
 33
        6.00000
999
PERIM-2-WEST:iz-INT-PER2N-SW
  0
3DFACE
  8
PERIM-2-WEST
 62
 43
 10
        4.60000
 20
       33.50000
 30
        6.00000
 11
        4.60000
 21
       33.50000
 31
        3.00000
 12
        0.00000
 22
       38.10000
 32
        3.00000
 13
        0.00000
 23
       38.10000
 33
        6.00000
999
PERIM-2-WEST:iz-INT-PER2S-NW
  0
3DFACE
  8
PERIM-2-WEST
 62
 43
 10
        0.00000
 20
        0.00000
 30
        6.00000
 11
        0.00000
 21
        0.00000
 31
        3.00000
 12
        4.60000
 22
        4.60000
 32
        3.00000
 13
        4.60000
 23
        4.60000
 33
        6.00000
999
PERIM-2-WEST:iz-INT-CORE2-WES
  0
3DFACE
  8
PERIM-2-WEST
 62
 43
 10
        4.60000
 20
        4.60000
 30
        6.00000
 11
        4.60000
 21
        4.60000
 31
        3.00000
 12
        4.60000
 22
       33.50000
 32
        3.00000
 13
        4.60000
 23
       33.50000
 33
        6.00000
999
PERIM-2-WEST:FLOOR-PER2W
  0
3DFACE
  8
PERIM-2-WEST
 62
  8
 10
        4.60000
 20
        4.60000
 30
        3.00000
 11
        0.00000
 21
        0.00000
 31
        3.00000
 12
        0.00000
 22
       38.10000
 32
        3.00000
 13
        4.60000
 23
       33.50000
 33
        3.00000
999
PERIM-2-WEST:CEILING-PER2W
  0
3DFACE
  8
PERIM-2-WEST
 62
 15
 10
        4.60000
 20
       33.50000
 30
        6.00000
 11
        0.00000
 21
       38.10000
 31
        6.00000
 12
        0.00000
 22
        0.00000
 32
        6.00000
 13
        4.60000
 23
        4.60000
 33
        6.00000
999
CORE-2:INT-CORE2-SOU
  0
3DFACE
  8
CORE-2
 62
 43
 10
        4.60000
 20
        4.60000
 30
        6.00000
 11
        4.60000
 21
        4.60000
 31
        3.00000
 12
       19.78399
 22
        4.60000
 32
        3.00000
 13
       19.78399
 23
        4.60000
 33
        6.00000
999
CORE-2:INT-CORE2-WES
  0
3DFACE
  8
CORE-2
 62
 43
 10
        4.60000
 20
       33.50000
 30
        6.00000
 11
        4.60000
 21
       33.50000
 31
        3.00000
 12
        4.60000
 22
        4.60000
 32
        3.00000
 13
        4.60000
 23
        4.60000
 33
        6.00000
999
CORE-2:INT-CORE2-NOR
  0
3DFACE
  8
CORE-2
 62
 43
 10
       19.78399
 20
       33.50000
 30
        6.00000
 11
       19.78399
 21
       33.50000
 31
        3.00000
 12
        4.60000
 22
       33.50000
 32
        3.00000
 13
        4.60000
 23
       33.50000
 33
        6.00000
999
CORE-2:INT-CORE2-EAS
  0
3DFACE
  8
CORE-2
 62
 43
 10
       19.78399
 20
        4.60000
 30
        6.00000
 11
       19.78399
 21
        4.60000
 31
        3.00000
 12
       19.78399
 22
       33.50000
 32
        3.00000
 13
       19.78399
 23
       33.50000
 33
        6.00000
999
CORE-2:iz-INT-PER2N-SOU
  0
3DFACE
  8
CORE-2
 62
 43
 10
       19.78399
 20
       33.50000
 30
        6.00000
 11
       19.78399
 21
       33.50000
 31
        3.00000
 12
        4.60000
 22
       33.50000
 32
        3.00000
 13
        4.60000
 23
       33.50000
 33
        6.00000
999
CORE-2:iz-INT-PER2E-WES
  0
3DFACE
  8
CORE-2
 62
 43
 10
       19.78399
 20
        4.60000
 30
        6.00000
 11
       19.78399
 21
        4.60000
 31
        3.00000
 12
       19.78399
 22
       33.50000
 32
        3.00000
 13
       19.78399
 23
       33.50000
 33
        6.00000
999
CORE-2:iz-INT-PER2W-EAS
  0
3DFACE
  8
CORE-2
 62
 43
 10
        4.60000
 20
       33.50000
 30
        6.00000
 11
        4.60000
 21
       33.50000
 31
        3.00000
 12
        4.60000
 22
        4.60000
 32
        3.00000
 13
        4.60000
 23
        4.60000
 33
        6.00000
999
CORE-2:iz-INT-PER2S-NOR
  0
3DFACE
  8
CORE-2
 62
 43
 10
        4.60000
 20
        4.60000
 30
        6.00000
 11
        4.60000
 21
        4.60000
 31
        3.00000
 12
       19.78399
 22
        4.60000
 32
        3.00000
 13
       19.78399
 23
        4.60000
 33
        6.00000
999
CORE-2:FLOOR-CORE2
  0
3DFACE
  8
CORE-2
 62
  8
 10
       19.78399
 20
       33.50000
 30
        3.00000
 11
       19.78399
 21
        4.60000
 31
        3.00000
 12
        4.60000
 22
        4.60000
 32
        3.00000
 13
        4.60000
 23
       33.50000
 33
        3.00000
999
CORE-2:CEILING-CORE2
  0
3DFACE
  8
CORE-2
 62
 15
 10
        4.60000
 20
       33.50000
 30
        6.00000
 11
        4.60000
 21
        4.60000
 31
        6.00000
 12
       19.78399
 22
        4.60000
 32
        6.00000
 13
       19.78399
 23
       33.50000
 33
        6.00000
999
PERIM-3-NORTH:EXT-PER3N-NOR
  0
3DFACE
  8
PERIM-3-NORTH
 62
 43
 10
       24.38400
 20
       38.10000
 30
        9.00000
 11
       24.38400
 21
       38.10000
 31
        6.00000
 12
        0.00000
 22
       38.10000
 32
        6.00000
 13
        0.00000
 23
       38.10000
 33
        9.00000
999
PERIM-3-NORTH:WIN-3-NOR
  0
3DFACE
  8
PERIM-3-NORTH
 62
143
 10
       24.38400
 20
       38.10000
 30
        8.10000
 11
       24.38400
 21
       38.10000
 31
        6.90000
 12
        0.00000
 22
       38.10000
 32
        6.90000
 13
        0.00000
 23
       38.10000
 33
        8.10000
999
PERIM-3-NORTH:INT-PER3N-SW
  0
3DFACE
  8
PERIM-3-NORTH
 62
 43
 10
        0.00000
 20
       38.10000
 30
        9.00000
 11
        0.00000
 21
       38.10000
 31
        6.00000
 12
        4.60000
 22
       33.50000
 32
        6.00000
 13
        4.60000
 23
       33.50000
 33
        9.00000
999
PERIM-3-NORTH:INT-PER3N-SOU
  0
3DFACE
  8
PERIM-3-NORTH
 62
 43
 10
        4.60000
 20
       33.50000
 30
        9.00000
 11
        4.60000
 21
       33.50000
 31
        6.00000
 12
       19.78399
 22
       33.50000
 32
        6.00000
 13
       19.78399
 23
       33.50000
 33
        9.00000
999
PERIM-3-NORTH:INT-PER3N-SE
  0
3DFACE
  8
PERIM-3-NORTH
 62
 43
 10
       19.78399
 20
       33.50000
 30
        9.00000
 11
       19.78399
 21
       33.50000
 31
        6.00000
 12
       24.38400
 22
       38.10000
 32
        6.00000
 13
       24.38400
 23
       38.10000
 33
        9.00000
999
PERIM-3-NORTH:iz-INT-PER3E-NW
  0
3DFACE
  8
PERIM-3-NORTH
 62
 43
 10
       19.78399
 20
       33.50000
 30
        9.00000
 11
       19.78399
 21
       33.50000
 31
        6.00000
 12
       24.38400
 22
       38.10000
 32
        6.00000
 13
       24.38400
 23
       38.10000
 33
        9.00000
999
PERIM-3-NORTH:iz-INT-PER3W-NE
  0
3DFACE
  8
PERIM-3-NORTH
 62
 43
 10
        0.00000
 20
       38.10000
 30
        9.00000
 11
        0.00000
 21
       38.10000
 31
        6.00000
 12
        4.60000
 22
       33.50000
 32
        6.00000
 13
        4.60000
 23
       33.50000
 33
        9.00000
999
PERIM-3-NORTH:iz-INT-CORE3-NOR
  0
3DFACE
  8
PERIM-3-NORTH
 62
 43
 10
        4.60000
 20
       33.50000
 30
        9.00000
 11
        4.60000
 21
       33.50000
 31
        6.00000
 12
       19.78399
 22
       33.50000
 32
        6.00000
 13
       19.78399
 23
       33.50000
 33
        9.00000
999
PERIM-3-NORTH:FLOOR-PER3N
  0
3DFACE
  8
PERIM-3-NORTH
 62
  8
 10
        4.60000
 20
       33.50000
 30
        6.00000
 11
        0.00000
 21
       38.10000
 31
        6.00000
 12
       24.38400
 22
       38.10000
 32
        6.00000
 13
       19.78399
 23
       33.50000
 33
        6.00000
999
PERIM-3-NORTH:ROOF-PER3N
  0
3DFACE
  8
PERIM-3-NORTH
 62
 15
 10
       19.78399
 20
       33.50000
 30
        9.00000
 11
       24.38400
 21
       38.10000
 31
        9.00000
 12
        0.00000
 22
       38.10000
 32
        9.00000
 13
        4.60000
 23
       33.50000
 33
        9.00000
999
PERIM-3-EAST:EXT-PER3E-EAS
  0
3DFACE
  8
PERIM-3-EAST
 62
 43
 10
       24.38400
 20
        0.00000
 30
        9.00000
 11
       24.38400
 21
        0.00000
 31
        6.00000
 12
       24.38400
 22
       38.10000
 32
        6.00000
 13
       24.38400
 23
       38.10000
 33
        9.00000
999
PERIM-3-EAST:WIN-3-EAS
  0
3DFACE
  8
PERIM-3-EAST
 62
143
 10
       24.38400
 20
        0.00000
 30
        8.10000
 11
       24.38400
 21
        0.00000
 31
        6.90000
 12
       24.38400
 22
       38.10000
 32
        6.90000
 13
       24.38400
 23
       38.10000
 33
        8.10000
999
PERIM-3-EAST:INT-PER3E-NW
  0
3DFACE
  8
PERIM-3-EAST
 62
 43
 10
       24.38400
 20
       38.10000
 30
        9.00000
 11
       24.38400
 21
       38.10000
 31
        6.00000
 12
       19.78399
 22
       33.50000
 32
        6.00000
 13
       19.78399
 23
       33.50000
 33
        9.00000
999
PERIM-3-EAST:INT-PER3E-WES
  0
3DFACE
  8
PERIM-3-EAST
 62
 43
 10
       19.78399
 20
       33.50000
 30
        9.00000
 11
       19.78399
 21
       33.50000
 31
        6.00000
 12
       19.78399
 22
        4.60000
 32
        6.00000
 13
       19.78399
 23
        4.60000
 33
        9.00000
999
PERIM-3-EAST:INT-PER3E-SW
  0
3DFACE
  8
PERIM-3-EAST
 62
 43
 10
       19.78399
 20
        4.60000
 30
        9.00000
 11
       19.78399
 21
        4.60000
 31
        6.00000
 12
       24.38400
 22
        0.00000
 32
        6.00000
 13
       24.38400
 23
        0.00000
 33
        9.00000
999
PERIM-3-EAST:iz-INT-PER3N-SE
  0
3DFACE
  8
PERIM-3-EAST
 62
 43
 10
       24.38400
 20
       38.10000
 30
        9.00000
 11
       24.38400
 21
       38.10000
 31
        6.00000
 12
       19.78399
 22
       33.50000
 32
        6.00000
 13
       19.78399
 23
       33.50000
 33
        9.00000
999
PERIM-3-EAST:iz-INT-PER3S-NE
  0
3DFACE
  8
PERIM-3-EAST
 62
 43
 10
       19.78399
 20
        4.60000
 30
        9.00000
 11
       19.78399
 21
        4.60000
 31
        6.00000
 12
       24.38400
 22
        0.00000
 32
        6.00000
 13
       24.38400
 23
        0.00000
 33
        9.00000
999
PERIM-3-EAST:iz-INT-CORE3-EAS
  0
3DFACE
  8
PERIM-3-EAST
 62
 43
 10
       19.78399
 20
       33.50000
 30
        9.00000
 11
       19.78399
 21
       33.50000
 31
        6.00000
 12
       19.78399
 22
        4.60000
 32
        6.00000
 13
       19.78399
 23
        4.60000
 33
        9.00000
999
PERIM-3-EAST:FLOOR-PER3E
  0
3DFACE
  8
PERIM-3-EAST
 62
  8
 10
       19.78399
 20
       33.50000
 30
        6.00000
 11
       24.38400
 21
       38.10000
 31
        6.00000
 12
       24.38400
 22
        0.00000
 32
        6.00000
 13
       19.78399
 23
        4.60000
 33
        6.00000
999
PERIM-3-EAST:ROOF-PER3E
  0
3DFACE
  8
PERIM-3-EAST
 62
 15
 10
       19.78399
 20
        4.60000
 30
        9.00000
 11
       24.38400
 21
        0.00000
 31
        9.00000
 12
       24.38400
 22
       38.10000
 32
        9.00000
 13
       19.78399
 23
       33.50000
 33
        9.00000
999
PERIM-3-SOUTH:EXT-PER3S-SOU
  0
3DFACE
  8
PERIM-3-SOUTH
 62
 43
 10
        0.00000
 20
        0.00000
 30
        9.00000
 11
        0.00000
 21
        0.00000
 31
        6.00000
 12
       24.38400
 22
        0.00000
 32
        6.00000
 13
       24.38400
 23
        0.00000
 33
        9.00000
999
PERIM-3-SOUTH:WIN-3-SOU
  0
3DFACE
  8
PERIM-3-SOUTH
 62
143
 10
        0.00000
 20
        0.00000
 30
        8.10000
 11
        0.00000
 21
        0.00000
 31
        6.90000
 12
       24.38400
 22
        0.00000
 32
        6.90000
 13
       24.38400
 23
        0.00000
 33
        8.10000
999
PERIM-3-SOUTH:INT-PER3S-NE
  0
3DFACE
  8
PERIM-3-SOUTH
 62
 43
 10
       24.38400
 20
        0.00000
 30
        9.00000
 11
       24.38400
 21
        0.00000
 31
        6.00000
 12
       19.78399
 22
        4.60000
 32
        6.00000
 13
       19.78399
 23
        4.60000
 33
        9.00000
999
PERIM-3-SOUTH:INT-PER3S-NOR
  0
3DFACE
  8
PERIM-3-SOUTH
 62
 43
 10
       19.78399
 20
        4.60000
 30
        9.00000
 11
       19.78399
 21
        4.60000
 31
        6.00000
 12
        4.60000
 22
        4.60000
 32
        6.00000
 13
        4.60000
 23
        4.60000
 33
        9.00000
999
PERIM-3-SOUTH:INT-PER3S-NW
  0
3DFACE
  8
PERIM-3-SOUTH
 62
 43
 10
        4.60000
 20
        4.60000
 30
        9.00000
 11
        4.60000
 21
        4.60000
 31
        6.00000
 12
        0.00000
 22
        0.00000
 32
        6.00000
 13
        0.00000
 23
        0.00000
 33
        9.00000
999
PERIM-3-SOUTH:iz-INT-PER3E-SW
  0
3DFACE
  8
PERIM-3-SOUTH
 62
 43
 10
       24.38400
 20
        0.00000
 30
        9.00000
 11
       24.38400
 21
        0.00000
 31
        6.00000
 12
       19.78399
 22
        4.60000
 32
        6.00000
 13
       19.78399
 23
        4.60000
 33
        9.00000
999
PERIM-3-SOUTH:iz-INT-PER3W-SE
  0
3DFACE
  8
PERIM-3-SOUTH
 62
 43
 10
        4.60000
 20
        4.60000
 30
        9.00000
 11
        4.60000
 21
        4.60000
 31
        6.00000
 12
        0.00000
 22
        0.00000
 32
        6.00000
 13
        0.00000
 23
        0.00000
 33
        9.00000
999
PERIM-3-SOUTH:iz-INT-CORE3-SOU
  0
3DFACE
  8
PERIM-3-SOUTH
 62
 43
 10
       19.78399
 20
        4.60000
 30
        9.00000
 11
       19.78399
 21
        4.60000
 31
        6.00000
 12
        4.60000
 22
        4.60000
 32
        6.00000
 13
        4.60000
 23
        4.60000
 33
        9.00000
999
PERIM-3-SOUTH:FLOOR-PER3S
  0
3DFACE
  8
PERIM-3-SOUTH
 62
  8
 10
       19.78399
 20
        4.60000
 30
        6.00000
 11
       24.38400
 21
        0.00000
 31
        6.00000
 12
        0.00000
 22
        0.00000
 32
        6.00000
 13
        4.60000
 23
        4.60000
 33
        6.00000
999
PERIM-3-SOUTH:ROOF-PER3S
  0
3DFACE
  8
PERIM-3-SOUTH
 62
 15
 10
        4.60000
 20
        4.60000
 30
        9.00000
 11
        0.00000
 21
        0.00000
 31
        9.00000
 12
       24.38400
 22
        0.00000
 32
        9.00000
 13
       19.78399
 23
        4.60000
 33
        9.00000
999
PERIM-3-WEST:EXT-PER3W-WES
  0
3DFACE
  8
PERIM-3-WEST
 62
 43
 10
        0.00000
 20
       38.10000
 30
        9.00000
 11
        0.00000
 21
       38.10000
 31
        6.00000
 12
        0.00000
 22
        0.00000
 32
        6.00000
 13
        0.00000
 23
        0.00000
 33
        9.00000
999
PERIM-3-WEST:WIN-3-WES
  0
3DFACE
  8
PERIM-3-WEST
 62
143
 10
        0.00000
 20
       38.10000
 30
        8.10000
 11
        0.00000
 21
       38.10000
 31
        6.90000
 12
        0.00000
 22
        0.00000
 32
        6.90000
 13
        0.00000
 23
        0.00000
 33
        8.10000
999
PERIM-3-WEST:INT-PER3W-SE
  0
3DFACE
  8
PERIM-3-WEST
 62
 43
 10
        0.00000
 20
        0.00000
 30
        9.00000
 11
        0.00000
 21
        0.00000
 31
        6.00000
 12
        4.60000
 22
        4.60000
 32
        6.00000
 13
        4.60000
 23
        4.60000
 33
        9.00000
999
PERIM-3-WEST:INT-PER3W-EAS
  0
3DFACE
  8
PERIM-3-WEST
 62
 43
 10
        4.60000
 20
        4.60000
 30
        9.00000
 11
        4.60000
 21
        4.60000
 31
        6.00000
 12
        4.60000
 22
       33.50000
 32
        6.00000
 13
        4.60000
 23
       33.50000
 33
        9.00000
999
PERIM-3-WEST:INT-PER3W-NE
  0
3DFACE
  8
PERIM-3-WEST
 62
 43
 10
        4.60000
 20
       33.50000
 30
        9.00000
 11
        4.60000
 21
       33.50000
 31
        6.00000
 12
        0.00000
 22
       38.10000
 32
        6.00000
 13
        0.00000
 23
       38.10000
 33
        9.00000
999
PERIM-3-WEST:iz-INT-PER3N-SW
  0
3DFACE
  8
PERIM-3-WEST
 62
 43
 10
        4.60000
 20
       33.50000
 30
        9.00000
 11
        4.60000
 21
       33.50000
 31
        6.00000
 12
        0.00000
 22
       38.10000
 32
        6.00000
 13
        0.00000
 23
       38.10000
 33
        9.00000
999
PERIM-3-WEST:iz-INT-PER3S-NW
  0
3DFACE
  8
PERIM-3-WEST
 62
 43
 10
        0.00000
 20
        0.00000
 30
        9.00000
 11
        0.00000
 21
        0.00000
 31
        6.00000
 12
        4.60000
 22
        4.60000
 32
        6.00000
 13
        4.60000
 23
        4.60000
 33
        9.00000
999
PERIM-3-WEST:iz-INT-CORE3-WES
  0
3DFACE
  8
PERIM-3-WEST
 62
 43
 10
        4.60000
 20
        4.60000
 30
        9.00000
 11
        4.60000
 21
        4.60000
 31
        6.00000
 12
        4.60000
 22
       33.50000
 32
        6.00000
 13
        4.60000
 23
       33.50000
 33
        9.00000
999
PERIM-3-WEST:FLOOR-PER3W
  0
3DFACE
  8
PERIM-3-WEST
 62
  8
 10
        4.60000
 20
        4.60000
 30
        6.00000
 11
        0.00000
 21
        0.00000
 31
        6.00000
 12
        0.00000
 22
       38.10000
 32
        6.00000
 13
        4.60000
 23
       33.50000
 33
        6.00000
999
PERIM-3-WEST:ROOF-PER3W
  0
3DFACE
  8
PERIM-3-WEST
 62
 15
 10
        4.60000
 20
       33.50000
 30
        9.00000
 11
        0.00000
 21
       38.10000
 31
        9.00000
 12
        0.00000
 22
        0.00000
 32
        9.00000
 13
        4.60000
 23
        4.60000
 33
        9.00000
999
CORE-3:INT-CORE3-SOU
  0
3DFACE
  8
CORE-3
 62
 43
 10
        4.60000
 20
        4.60000
 30
        9.00000
 11
        4.60000
 21
        4.60000
 31
        6.00000
 12
       19.78399
 22
        4.60000
 32
        6.00000
 13
       19.78399
 23
        4.60000
 33
        9.00000
999
CORE-3:INT-CORE3-WES
  0
3DFACE
  8
CORE-3
 62
 43
 10
        4.60000
 20
       33.50000
 30
        9.00000
 11
        4.60000
 21
       33.50000
 31
        6.00000
 12
        4.60000
 22
        4.60000
 32
        6.00000
 13
        4.60000
 23
        4.60000
 33
        9.00000
999
CORE-3:INT-CORE3-NOR
  0
3DFACE
  8
CORE-3
 62
 43
 10
       19.78399
 20
       33.50000
 30
        9.00000
 11
       19.78399
 21
       33.50000
 31
        6.00000
 12
        4.60000
 22
       33.50000
 32
        6.00000
 13
        4.60000
 23
       33.50000
 33
        9.00000
999
CORE-3:INT-CORE3-EAS
  0
3DFACE
  8
CORE-3
 62
 43
 10
       19.78399
 20
        4.60000
 30
        9.00000
 11
       19.78399
 21
        4.60000
 31
        6.00000
 12
       19.78399
 22
       33.50000
 32
        6.00000
 13
       19.78399
 23
       33.50000
 33
        9.00000
999
CORE-3:iz-INT-PER3N-SOU
  0
3DFACE
  8
CORE-3
 62
 43
 10
       19.78399
 20
       33.50000
 30
        9.00000
 11
       19.78399
 21
       33.50000
 31
        6.00000
 12
        4.60000
 22
       33.50000
 32
        6.00000
 13
        4.60000
 23
       33.50000
 33
        9.00000
999
CORE-3:iz-INT-PER3E-WES
  0
3DFACE
  8
CORE-3
 62
 43
 10
       19.78399
 20
        4.60000
 30
        9.00000
 11
       19.78399
 21
        4.60000
 31
        6.00000
 12
       19.78399
 22
       33.50000
 32
        6.00000
 13
       19.78399
 23
       33.50000
 33
        9.00000
999
CORE-3:iz-INT-PER3S-NOR
  0
3DFACE
  8
CORE-3
 62
 43
 10
        4.60000
 20
        4.60000
 30
        9.00000
 11
        4.60000
 21
        4.60000
 31
        6.00000
 12
       19.78399
 22
        4.60000
 32
        6.00000
 13
       19.78399
 23
        4.60000
 33
        9.00000
999
CORE-3:iz-INT-PER3W-EAS
  0
3DFACE
  8
CORE-3
 62
 43
 10
        4.60000
 20
       33.50000
 30
        9.00000
 11
        4.60000
 21
       33.50000
 31
        6.00000
 12
        4.60000
 22
        4.60000
 32
        6.00000
 13
        4.60000
 23
        4.60000
 33
        9.00000
999
CORE-3:FLOOR-CORE3
  0
3DFACE
  8
CORE-3
 62
  8
 10
       19.78399
 20
       33.50000
 30
        6.00000
 11
       19.78399
 21
        4.60000
 31
        6.00000
 12
        4.60000
 22
        4.60000
 32
        6.00000
 13
        4.60000
 23
       33.50000
 33
        6.00000
999
CORE-3:ROOF-CORE3
  0
3DFACE
  8
CORE-3
 62
 15
 10
        4.60000
 20
       33.50000
 30
        9.00000
 11
        4.60000
 21
        4.60000
 31
        9.00000
 12
       19.78399
 22
        4.60000
 32
        9.00000
 13
       19.78399
 23
       33.50000
 33
        9.00000
  0
ENDSEC
  0
EOF
